<svg xmlns="http://www.w3.org/2000/svg" xmlns:xlink="http://www.w3.org/1999/xlink" version="1.1" x="0px" y="0px" viewBox="0 0 29 37.5" xml:space="preserve"><g transform="translate(-570 -140)"><g xmlns="http://www.w3.org/2000/svg" xmlns:xlink="http://www.w3.org/1999/xlink"><polygon points="584.017,159 584.017,149 576.017,145 573.017,154   "/><polygon points="593.017,145 585.017,149 585.017,159 596.017,154   "/><polygon points="591.017,160 589.75,159.045 591.509,158.246 595.017,160 595.017,158 593.792,157.208 598.483,155.075     595.458,146 594.404,146 597.25,154.537 585.017,160.099 584.017,160.099 571.783,154.537 574.629,146 573.575,146     570.55,155.075 575.241,157.208 574.017,158 574.017,160 577.524,158.246 579.283,159.045 578.017,160 578.017,161 573.017,164     573.017,166 582.746,160.62 584.017,161.197 585.017,161.197 586.287,160.62 596.017,166 596.017,164 591.017,161   "/></g></g><text x="0" y="45" fill="#000000" font-size="5px" font-weight="bold" font-family="'Helvetica Neue', Helvetica, Arial-Unicode, Arial, Sans-serif">Created by Hea Poh Lin</text><text x="0" y="50" fill="#000000" font-size="5px" font-weight="bold" font-family="'Helvetica Neue', Helvetica, Arial-Unicode, Arial, Sans-serif">from the Noun Project</text></svg>